<svg width="500" height="500" viewBox="0 0 278 141" fill="none" xmlns="http://www.w3.org/2000/svg">
<path d="M124.067 65.6646V60.4985C124.067 51.9485 126.584 45 139.167 45C151.751 45 154.267 51.9485 154.267 60.4985V65.6646" stroke="#00549A" stroke-width="4.734" stroke-linecap="round" stroke-linejoin="round"/>
<path d="M139.167 87.6208C142.642 87.6208 145.459 84.7295 145.459 81.1631C145.459 77.5966 142.642 74.7054 139.167 74.7054C135.692 74.7054 132.875 77.5966 132.875 81.1631C132.875 84.7295 135.692 87.6208 139.167 87.6208Z" stroke="#00549A" stroke-width="4.734" stroke-linecap="round" stroke-linejoin="round"/>
<path d="M151.751 96.6615H126.584C116.517 96.6615 114 94.0784 114 83.7461V78.58C114 68.2477 116.517 65.6646 126.584 65.6646H151.751C161.818 65.6646 164.334 68.2477 164.334 78.58V83.7461C164.334 94.0784 161.818 96.6615 151.751 96.6615Z" stroke="#00549A" stroke-width="4.734" stroke-linecap="round" stroke-linejoin="round"/>
<path d="M31.5909 23.9091L59.2273 102.273H60.3182L87.9545 23.9091H99.7727L65.5909 117H53.9545L19.7727 23.9091H31.5909ZM190.091 23.9091L217.727 102.273H218.818L246.455 23.9091H258.273L224.091 117H212.455L178.273 23.9091H190.091Z" fill="white"/>
</svg>
