<svg width="222" height="40" viewBox="0 0 222 40" fill="none" xmlns="http://www.w3.org/2000/svg">
<path d="M116 17.4V14.8C116 10.497 117.25 7 123.5 7C129.75 7 131 10.497 131 14.8V17.4" stroke="#010101" stroke-width="2" stroke-linecap="round" stroke-linejoin="round"/>
<path d="M123.5 28.45C125.226 28.45 126.625 26.9949 126.625 25.2C126.625 23.4051 125.226 21.95 123.5 21.95C121.774 21.95 120.375 23.4051 120.375 25.2C120.375 26.9949 121.774 28.45 123.5 28.45Z" stroke="#010101" stroke-width="2" stroke-linecap="round" stroke-linejoin="round"/>
<path d="M129.75 33H117.25C112.25 33 111 31.7 111 26.5V23.9C111 18.7 112.25 17.4 117.25 17.4H129.75C134.75 17.4 136 18.7 136 23.9V26.5C136 31.7 134.75 33 129.75 33Z" stroke="#010101" stroke-width="2" stroke-linecap="round" stroke-linejoin="round"/>
<path d="M8.86648 8.72727L15.7756 28.3182H16.0483L22.9574 8.72727H25.9119L17.3665 32H14.4574L5.91193 8.72727H8.86648ZM32.6847 32.4091C31.5786 32.4091 30.5748 32.2008 29.6733 31.7841C28.7718 31.3598 28.0559 30.75 27.5256 29.9545C26.9953 29.1515 26.7301 28.1818 26.7301 27.0455C26.7301 26.0455 26.9271 25.2348 27.321 24.6136C27.715 23.9848 28.2415 23.4924 28.9006 23.1364C29.5597 22.7803 30.2869 22.5152 31.0824 22.3409C31.8854 22.1591 32.6922 22.0152 33.5028 21.9091C34.5634 21.7727 35.4233 21.6705 36.0824 21.6023C36.7491 21.5265 37.2339 21.4015 37.5369 21.2273C37.8475 21.053 38.0028 20.75 38.0028 20.3182V20.2273C38.0028 19.1061 37.696 18.2348 37.0824 17.6136C36.4763 16.9924 35.5559 16.6818 34.321 16.6818C33.0407 16.6818 32.0369 16.9621 31.3097 17.5227C30.5824 18.0833 30.071 18.6818 29.7756 19.3182L27.2301 18.4091C27.6847 17.3485 28.2907 16.5227 29.0483 15.9318C29.8134 15.3333 30.6468 14.9167 31.5483 14.6818C32.4574 14.4394 33.3513 14.3182 34.2301 14.3182C34.7907 14.3182 35.4347 14.3864 36.1619 14.5227C36.8968 14.6515 37.6051 14.9205 38.2869 15.3295C38.9763 15.7386 39.5483 16.3561 40.0028 17.1818C40.4574 18.0076 40.6847 19.1136 40.6847 20.5V32H38.0028V29.6364H37.8665C37.6847 30.0152 37.3816 30.4205 36.9574 30.8523C36.5331 31.2841 35.9688 31.6515 35.2642 31.9545C34.5597 32.2576 33.6998 32.4091 32.6847 32.4091ZM33.0938 30C34.1544 30 35.0483 29.7917 35.7756 29.375C36.5104 28.9583 37.0634 28.4205 37.4347 27.7614C37.8134 27.1023 38.0028 26.4091 38.0028 25.6818V23.2273C37.8892 23.3636 37.6392 23.4886 37.2528 23.6023C36.8741 23.7083 36.4347 23.803 35.9347 23.8864C35.4422 23.9621 34.9612 24.0303 34.4915 24.0909C34.0294 24.1439 33.6544 24.1894 33.3665 24.2273C32.6695 24.3182 32.018 24.4659 31.4119 24.6705C30.8134 24.8674 30.3286 25.1667 29.9574 25.5682C29.5938 25.9621 29.4119 26.5 29.4119 27.1818C29.4119 28.1136 29.7566 28.8182 30.446 29.2955C31.143 29.7652 32.0256 30 33.0938 30ZM48.2614 21.5V32H45.5795V14.5455H48.1705V17.2727H48.3977C48.8068 16.3864 49.428 15.6742 50.2614 15.1364C51.0947 14.5909 52.1705 14.3182 53.4886 14.3182C54.6705 14.3182 55.7045 14.5606 56.5909 15.0455C57.4773 15.5227 58.1667 16.25 58.6591 17.2273C59.1515 18.197 59.3977 19.4242 59.3977 20.9091V32H56.7159V21.0909C56.7159 19.7197 56.3598 18.6515 55.6477 17.8864C54.9356 17.1136 53.9583 16.7273 52.7159 16.7273C51.8598 16.7273 51.0947 16.9129 50.4205 17.2841C49.7538 17.6553 49.2273 18.197 48.8409 18.9091C48.4545 19.6212 48.2614 20.4848 48.2614 21.5ZM64.2983 32V14.5455H66.9801V32H64.2983ZM65.6619 11.6364C65.1392 11.6364 64.6884 11.4583 64.3097 11.1023C63.9384 10.7462 63.7528 10.3182 63.7528 9.81818C63.7528 9.31818 63.9384 8.89015 64.3097 8.53409C64.6884 8.17803 65.1392 8 65.6619 8C66.1847 8 66.6316 8.17803 67.0028 8.53409C67.3816 8.89015 67.571 9.31818 67.571 9.81818C67.571 10.3182 67.3816 10.7462 67.0028 11.1023C66.6316 11.4583 66.1847 11.6364 65.6619 11.6364ZM84.2557 18.4545L81.8466 19.1364C81.6951 18.7348 81.4716 18.3447 81.1761 17.9659C80.8883 17.5795 80.4943 17.2614 79.9943 17.0114C79.4943 16.7614 78.8542 16.6364 78.0739 16.6364C77.0057 16.6364 76.1155 16.8826 75.4034 17.375C74.6989 17.8598 74.3466 18.4773 74.3466 19.2273C74.3466 19.8939 74.589 20.4205 75.0739 20.8068C75.5587 21.1932 76.3163 21.5152 77.3466 21.7727L79.9375 22.4091C81.4981 22.7879 82.661 23.3674 83.4261 24.1477C84.1913 24.9205 84.5739 25.9167 84.5739 27.1364C84.5739 28.1364 84.286 29.0303 83.7102 29.8182C83.142 30.6061 82.3466 31.2273 81.3239 31.6818C80.3011 32.1364 79.1117 32.3636 77.7557 32.3636C75.9754 32.3636 74.5019 31.9773 73.3352 31.2045C72.1686 30.4318 71.4299 29.303 71.1193 27.8182L73.6648 27.1818C73.9072 28.1212 74.3655 28.8258 75.0398 29.2955C75.7216 29.7652 76.6117 30 77.7102 30C78.9602 30 79.9527 29.7348 80.6875 29.2045C81.4299 28.6667 81.8011 28.0227 81.8011 27.2727C81.8011 26.6667 81.589 26.1591 81.1648 25.75C80.7405 25.3333 80.089 25.0227 79.2102 24.8182L76.3011 24.1364C74.7027 23.7576 73.5284 23.1705 72.7784 22.375C72.036 21.572 71.6648 20.5682 71.6648 19.3636C71.6648 18.3788 71.9413 17.5076 72.4943 16.75C73.0549 15.9924 73.8163 15.3977 74.7784 14.9659C75.7481 14.5341 76.8466 14.3182 78.0739 14.3182C79.8011 14.3182 81.1572 14.697 82.142 15.4545C83.1345 16.2121 83.839 17.2121 84.2557 18.4545ZM91.2926 21.5V32H88.6108V8.72727H91.2926V17.2727H91.5199C91.929 16.3712 92.5426 15.6553 93.3608 15.125C94.1866 14.5871 95.285 14.3182 96.6562 14.3182C97.8456 14.3182 98.8873 14.5568 99.7812 15.0341C100.675 15.5038 101.368 16.2273 101.861 17.2045C102.361 18.1742 102.611 19.4091 102.611 20.9091V32H99.929V21.0909C99.929 19.7045 99.5691 18.6326 98.8494 17.875C98.1373 17.1098 97.1487 16.7273 95.8835 16.7273C95.0047 16.7273 94.2169 16.9129 93.5199 17.2841C92.8305 17.6553 92.285 18.197 91.8835 18.9091C91.4896 19.6212 91.2926 20.4848 91.2926 21.5ZM144.835 8.72727L151.744 28.3182H152.017L158.926 8.72727H161.881L153.335 32H150.426L141.881 8.72727H144.835ZM168.653 32.4091C167.547 32.4091 166.544 32.2008 165.642 31.7841C164.741 31.3598 164.025 30.75 163.494 29.9545C162.964 29.1515 162.699 28.1818 162.699 27.0455C162.699 26.0455 162.896 25.2348 163.29 24.6136C163.684 23.9848 164.21 23.4924 164.869 23.1364C165.528 22.7803 166.256 22.5152 167.051 22.3409C167.854 22.1591 168.661 22.0152 169.472 21.9091C170.532 21.7727 171.392 21.6705 172.051 21.6023C172.718 21.5265 173.203 21.4015 173.506 21.2273C173.816 21.053 173.972 20.75 173.972 20.3182V20.2273C173.972 19.1061 173.665 18.2348 173.051 17.6136C172.445 16.9924 171.525 16.6818 170.29 16.6818C169.009 16.6818 168.006 16.9621 167.278 17.5227C166.551 18.0833 166.04 18.6818 165.744 19.3182L163.199 18.4091C163.653 17.3485 164.259 16.5227 165.017 15.9318C165.782 15.3333 166.616 14.9167 167.517 14.6818C168.426 14.4394 169.32 14.3182 170.199 14.3182C170.759 14.3182 171.403 14.3864 172.131 14.5227C172.866 14.6515 173.574 14.9205 174.256 15.3295C174.945 15.7386 175.517 16.3561 175.972 17.1818C176.426 18.0076 176.653 19.1136 176.653 20.5V32H173.972V29.6364H173.835C173.653 30.0152 173.35 30.4205 172.926 30.8523C172.502 31.2841 171.938 31.6515 171.233 31.9545C170.528 32.2576 169.669 32.4091 168.653 32.4091ZM169.062 30C170.123 30 171.017 29.7917 171.744 29.375C172.479 28.9583 173.032 28.4205 173.403 27.7614C173.782 27.1023 173.972 26.4091 173.972 25.6818V23.2273C173.858 23.3636 173.608 23.4886 173.222 23.6023C172.843 23.7083 172.403 23.803 171.903 23.8864C171.411 23.9621 170.93 24.0303 170.46 24.0909C169.998 24.1439 169.623 24.1894 169.335 24.2273C168.638 24.3182 167.987 24.4659 167.381 24.6705C166.782 24.8674 166.297 25.1667 165.926 25.5682C165.563 25.9621 165.381 26.5 165.381 27.1818C165.381 28.1136 165.725 28.8182 166.415 29.2955C167.112 29.7652 167.994 30 169.062 30ZM192.548 24.8636V14.5455H195.23V32H192.548V29.0455H192.366C191.957 29.9318 191.321 30.6856 190.457 31.3068C189.594 31.9205 188.503 32.2273 187.185 32.2273C186.094 32.2273 185.124 31.9886 184.276 31.5114C183.427 31.0265 182.76 30.2992 182.276 29.3295C181.791 28.3523 181.548 27.1212 181.548 25.6364V14.5455H184.23V25.4545C184.23 26.7273 184.586 27.7424 185.298 28.5C186.018 29.2576 186.935 29.6364 188.048 29.6364C188.715 29.6364 189.393 29.4659 190.082 29.125C190.779 28.7841 191.363 28.2614 191.832 27.5568C192.31 26.8523 192.548 25.9545 192.548 24.8636ZM202.824 8.72727V32H200.142V8.72727H202.824ZM215.327 14.5455V16.8182H206.281V14.5455H215.327ZM208.918 10.3636H211.599V27C211.599 27.7576 211.709 28.3258 211.929 28.7045C212.156 29.0758 212.444 29.3258 212.793 29.4545C213.149 29.5758 213.524 29.6364 213.918 29.6364C214.213 29.6364 214.455 29.6212 214.645 29.5909C214.834 29.553 214.986 29.5227 215.099 29.5L215.645 31.9091C215.463 31.9773 215.209 32.0455 214.884 32.1136C214.558 32.1894 214.145 32.2273 213.645 32.2273C212.887 32.2273 212.145 32.0644 211.418 31.7386C210.698 31.4129 210.099 30.9167 209.622 30.25C209.152 29.5833 208.918 28.7424 208.918 27.7273V10.3636Z" fill="#00549A"/>
</svg>
