<svg width="696" height="98" viewBox="0 0 696 98" fill="none" xmlns="http://www.w3.org/2000/svg">
<path d="M12.4659 2.90909L40.1023 81.2727H41.1932L68.8295 2.90909H80.6477L46.4659 96H34.8295L0.647727 2.90909H12.4659ZM107.739 97.6364C103.314 97.6364 99.2992 96.803 95.6932 95.1364C92.0871 93.4394 89.2235 91 87.1023 87.8182C84.9811 84.6061 83.9205 80.7273 83.9205 76.1818C83.9205 72.1818 84.7083 68.9394 86.2841 66.4545C87.8598 63.9394 89.9659 61.9697 92.6023 60.5455C95.2386 59.1212 98.1477 58.0606 101.33 57.3636C104.542 56.6364 107.769 56.0606 111.011 55.6364C115.254 55.0909 118.693 54.6818 121.33 54.4091C123.996 54.1061 125.936 53.6061 127.148 52.9091C128.39 52.2121 129.011 51 129.011 49.2727V48.9091C129.011 44.4242 127.784 40.9394 125.33 38.4545C122.905 35.9697 119.223 34.7273 114.284 34.7273C109.163 34.7273 105.148 35.8485 102.239 38.0909C99.3295 40.3333 97.2841 42.7273 96.1023 45.2727L85.9205 41.6364C87.7386 37.3939 90.1629 34.0909 93.1932 31.7273C96.2538 29.3333 99.5871 27.6667 103.193 26.7273C106.83 25.7576 110.405 25.2727 113.92 25.2727C116.163 25.2727 118.739 25.5455 121.648 26.0909C124.587 26.6061 127.42 27.6818 130.148 29.3182C132.905 30.9545 135.193 33.4242 137.011 36.7273C138.83 40.0303 139.739 44.4545 139.739 50V96H129.011V86.5455H128.466C127.739 88.0606 126.527 89.6818 124.83 91.4091C123.133 93.1364 120.875 94.6061 118.057 95.8182C115.239 97.0303 111.799 97.6364 107.739 97.6364ZM109.375 88C113.617 88 117.193 87.1667 120.102 85.5C123.042 83.8333 125.254 81.6818 126.739 79.0455C128.254 76.4091 129.011 73.6364 129.011 70.7273V60.9091C128.557 61.4545 127.557 61.9545 126.011 62.4091C124.496 62.8333 122.739 63.2121 120.739 63.5455C118.769 63.8485 116.845 64.1212 114.966 64.3636C113.117 64.5758 111.617 64.7576 110.466 64.9091C107.678 65.2727 105.072 65.8636 102.648 66.6818C100.254 67.4697 98.3144 68.6667 96.8295 70.2727C95.375 71.8485 94.6477 74 94.6477 76.7273C94.6477 80.4545 96.0265 83.2727 98.7841 85.1818C101.572 87.0606 105.102 88 109.375 88ZM170.045 54V96H159.318V26.1818H169.682V37.0909H170.591C172.227 33.5455 174.712 30.697 178.045 28.5455C181.379 26.3636 185.682 25.2727 190.955 25.2727C195.682 25.2727 199.818 26.2424 203.364 28.1818C206.909 30.0909 209.667 33 211.636 36.9091C213.606 40.7879 214.591 45.697 214.591 51.6364V96H203.864V52.3636C203.864 46.8788 202.439 42.6061 199.591 39.5455C196.742 36.4545 192.833 34.9091 187.864 34.9091C184.439 34.9091 181.379 35.6515 178.682 37.1364C176.015 38.6212 173.909 40.7879 172.364 43.6364C170.818 46.4848 170.045 49.9394 170.045 54ZM234.193 96V26.1818H244.92V96H234.193ZM239.648 14.5455C237.557 14.5455 235.754 13.8333 234.239 12.4091C232.754 10.9848 232.011 9.27273 232.011 7.27273C232.011 5.27273 232.754 3.56061 234.239 2.13636C235.754 0.71212 237.557 0 239.648 0C241.739 0 243.527 0.71212 245.011 2.13636C246.527 3.56061 247.284 5.27273 247.284 7.27273C247.284 9.27273 246.527 10.9848 245.011 12.4091C243.527 13.8333 241.739 14.5455 239.648 14.5455ZM314.023 41.8182L304.386 44.5455C303.78 42.9394 302.886 41.3788 301.705 39.8636C300.553 38.3182 298.977 37.0455 296.977 36.0455C294.977 35.0455 292.417 34.5455 289.295 34.5455C285.023 34.5455 281.462 35.5303 278.614 37.5C275.795 39.4394 274.386 41.9091 274.386 44.9091C274.386 47.5758 275.356 49.6818 277.295 51.2273C279.235 52.7727 282.265 54.0606 286.386 55.0909L296.75 57.6364C302.992 59.1515 307.644 61.4697 310.705 64.5909C313.765 67.6818 315.295 71.6667 315.295 76.5455C315.295 80.5455 314.144 84.1212 311.841 87.2727C309.568 90.4242 306.386 92.9091 302.295 94.7273C298.205 96.5455 293.447 97.4545 288.023 97.4545C280.902 97.4545 275.008 95.9091 270.341 92.8182C265.674 89.7273 262.72 85.2121 261.477 79.2727L271.659 76.7273C272.629 80.4848 274.462 83.303 277.159 85.1818C279.886 87.0606 283.447 88 287.841 88C292.841 88 296.811 86.9394 299.75 84.8182C302.72 82.6667 304.205 80.0909 304.205 77.0909C304.205 74.6667 303.356 72.6364 301.659 71C299.962 69.3333 297.356 68.0909 293.841 67.2727L282.205 64.5455C275.811 63.0303 271.114 60.6818 268.114 57.5C265.144 54.2879 263.659 50.2727 263.659 45.4545C263.659 41.5151 264.765 38.0303 266.977 35C269.22 31.9697 272.265 29.5909 276.114 27.8636C279.992 26.1364 284.386 25.2727 289.295 25.2727C296.205 25.2727 301.629 26.7879 305.568 29.8182C309.538 32.8485 312.356 36.8485 314.023 41.8182ZM342.17 54V96H331.443V2.90909H342.17V37.0909H343.08C344.716 33.4848 347.17 30.6212 350.443 28.5C353.746 26.3485 358.14 25.2727 363.625 25.2727C368.383 25.2727 372.549 26.2273 376.125 28.1364C379.701 30.0151 382.473 32.9091 384.443 36.8182C386.443 40.697 387.443 45.6364 387.443 51.6364V96H376.716V52.3636C376.716 46.8182 375.277 42.5303 372.398 39.5C369.549 36.4394 365.595 34.9091 360.534 34.9091C357.019 34.9091 353.867 35.6515 351.08 37.1364C348.322 38.6212 346.14 40.7879 344.534 43.6364C342.958 46.4848 342.17 49.9394 342.17 54Z" fill="white"/>
<path d="M412.341 2.90909L439.977 81.2727H441.068L468.705 2.90909H480.523L446.341 96H434.705L400.523 2.90909H412.341ZM507.614 97.6364C503.189 97.6364 499.174 96.803 495.568 95.1364C491.962 93.4394 489.098 91 486.977 87.8182C484.856 84.6061 483.795 80.7273 483.795 76.1818C483.795 72.1818 484.583 68.9394 486.159 66.4545C487.735 63.9394 489.841 61.9697 492.477 60.5455C495.114 59.1212 498.023 58.0606 501.205 57.3636C504.417 56.6364 507.644 56.0606 510.886 55.6364C515.129 55.0909 518.568 54.6818 521.205 54.4091C523.871 54.1061 525.811 53.6061 527.023 52.9091C528.265 52.2121 528.886 51 528.886 49.2727V48.9091C528.886 44.4242 527.659 40.9394 525.205 38.4545C522.78 35.9697 519.098 34.7273 514.159 34.7273C509.038 34.7273 505.023 35.8485 502.114 38.0909C499.205 40.3333 497.159 42.7273 495.977 45.2727L485.795 41.6364C487.614 37.3939 490.038 34.0909 493.068 31.7273C496.129 29.3333 499.462 27.6667 503.068 26.7273C506.705 25.7576 510.28 25.2727 513.795 25.2727C516.038 25.2727 518.614 25.5455 521.523 26.0909C524.462 26.6061 527.295 27.6818 530.023 29.3182C532.78 30.9545 535.068 33.4242 536.886 36.7273C538.705 40.0303 539.614 44.4545 539.614 50V96H528.886V86.5455H528.341C527.614 88.0606 526.402 89.6818 524.705 91.4091C523.008 93.1364 520.75 94.6061 517.932 95.8182C515.114 97.0303 511.674 97.6364 507.614 97.6364ZM509.25 88C513.492 88 517.068 87.1667 519.977 85.5C522.917 83.8333 525.129 81.6818 526.614 79.0455C528.129 76.4091 528.886 73.6364 528.886 70.7273V60.9091C528.432 61.4545 527.432 61.9545 525.886 62.4091C524.371 62.8333 522.614 63.2121 520.614 63.5455C518.644 63.8485 516.72 64.1212 514.841 64.3636C512.992 64.5758 511.492 64.7576 510.341 64.9091C507.553 65.2727 504.947 65.8636 502.523 66.6818C500.129 67.4697 498.189 68.6667 496.705 70.2727C495.25 71.8485 494.523 74 494.523 76.7273C494.523 80.4545 495.902 83.2727 498.659 85.1818C501.447 87.0606 504.977 88 509.25 88ZM603.193 67.4545V26.1818H613.92V96H603.193V84.1818H602.466C600.83 87.7273 598.284 90.7424 594.83 93.2273C591.375 95.6818 587.011 96.9091 581.739 96.9091C577.375 96.9091 573.496 95.9545 570.102 94.0455C566.708 92.1061 564.042 89.197 562.102 85.3182C560.163 81.4091 559.193 76.4848 559.193 70.5455V26.1818H569.92V69.8182C569.92 74.9091 571.345 78.9697 574.193 82C577.072 85.0303 580.739 86.5455 585.193 86.5455C587.86 86.5455 590.572 85.8636 593.33 84.5C596.117 83.1364 598.451 81.0455 600.33 78.2273C602.239 75.4091 603.193 71.8182 603.193 67.4545ZM644.295 2.90909V96H633.568V2.90909H644.295ZM694.307 26.1818V35.2727H658.125V26.1818H694.307ZM668.67 9.45454H679.398V76C679.398 79.0303 679.837 81.303 680.716 82.8182C681.625 84.303 682.777 85.303 684.17 85.8182C685.595 86.303 687.095 86.5455 688.67 86.5455C689.852 86.5455 690.822 86.4848 691.58 86.3636C692.337 86.2121 692.943 86.0909 693.398 86L695.58 95.6364C694.852 95.9091 693.837 96.1818 692.534 96.4545C691.231 96.7576 689.58 96.9091 687.58 96.9091C684.549 96.9091 681.58 96.2576 678.67 94.9545C675.792 93.6515 673.398 91.6667 671.489 89C669.61 86.3333 668.67 82.9697 668.67 78.9091V9.45454Z" fill="#00549A"/>
</svg>
